<svg id="Группа_2" data-name="Группа 2" xmlns="http://www.w3.org/2000/svg" width="50.66" height="50.656"><circle cx="25.33" cy="25.328" r="25.33" fill="#a3bbc8"/><path d="M1813.15 67.881a2.146 2.146 0 112.14-2.145 2.145 2.145 0 01-2.14 2.145zm0 7.869a2.146 2.146 0 112.14-2.147 2.146 2.146 0 01-2.14 2.147zm0 7.868a2.146 2.146 0 112.14-2.146 2.145 2.145 0 01-2.14 2.146zm7.86-15.737a2.146 2.146 0 112.15-2.145 2.143 2.143 0 01-2.15 2.145zm0 7.869a2.146 2.146 0 112.15-2.147 2.144 2.144 0 01-2.15 2.147zm0 7.868a2.146 2.146 0 112.15-2.146 2.143 2.143 0 01-2.15 2.146zm7.87-15.737a2.146 2.146 0 112.15-2.145 2.143 2.143 0 01-2.15 2.145zm0 7.869a2.146 2.146 0 112.15-2.147 2.144 2.144 0 01-2.15 2.147zm0 7.868a2.146 2.146 0 112.15-2.146 2.143 2.143 0 01-2.15 2.146z" transform="translate(-1795.34 -48.531)" fill="#fff" fill-rule="evenodd"/></svg>