<svg xmlns="http://www.w3.org/2000/svg" width="13" height="13"><g id="surface1" fill="#fff"><path d="M4.555 6.879c-1.563.703-2.7 2.168-2.895 3.953 0 .598.45 1.086 1.047 1.086h7.586c.598 0 1.047-.488 1.047-1.086-.195-1.785-1.332-3.25-2.895-3.953-.351.703-1.086 1.246-1.945 1.246-.86 0-1.594-.543-1.945-1.246zm4.652-3.086A2.706 2.706 0 016.5 6.5a2.709 2.709 0 010-5.418 2.709 2.709 0 012.707 2.711zm0 0"/><path d="M6.5 5.957c-.691 0-1.352.148-1.945.406a4.889 4.889 0 00-2.895 3.93c0 .598.45 1.082 1.047 1.082h7.586c.598 0 1.047-.484 1.047-1.082a4.889 4.889 0 00-2.895-3.93A4.884 4.884 0 006.5 5.957zm0 0"/></g></svg>