<?xml version="1.0" encoding="UTF-8"?>
<svg xmlns="http://www.w3.org/2000/svg" xmlns:xlink="http://www.w3.org/1999/xlink" width="9px" height="9px" viewBox="0 0 9 9" version="1.1">
<g id="surface1">
<path style=" stroke:none;fill-rule:evenodd;fill:rgb(55.294118%,55.294118%,55.294118%);fill-opacity:1;" d="M 8.054688 2.367188 C 7.867188 2.457031 7.792969 2.679688 7.878906 2.867188 C 8.707031 4.582031 8.117188 6.644531 6.507812 7.660156 C 4.898438 8.675781 2.78125 8.320312 1.589844 6.835938 C 0.398438 5.351562 0.511719 3.210938 1.851562 1.859375 C 3.195312 0.507812 5.335938 0.378906 6.832031 1.558594 C 6.992188 1.6875 7.226562 1.660156 7.355469 1.496094 C 7.484375 1.335938 7.457031 1.101562 7.296875 0.972656 C 5.652344 -0.332031 3.328125 -0.328125 1.6875 0.984375 C 0.0507812 2.296875 -0.464844 4.5625 0.449219 6.453125 C 1.359375 8.34375 3.457031 9.351562 5.503906 8.882812 C 7.546875 8.417969 9 6.597656 9 4.5 C 9.003906 3.820312 8.847656 3.152344 8.554688 2.542969 C 8.511719 2.453125 8.433594 2.382812 8.339844 2.351562 C 8.246094 2.316406 8.140625 2.324219 8.054688 2.367188 Z M 4.5 1.5 C 4.292969 1.5 4.125 1.667969 4.125 1.875 L 4.125 4.5 C 4.125 4.597656 4.164062 4.695312 4.234375 4.765625 C 4.304688 4.835938 4.402344 4.875 4.5 4.875 L 6.375 4.875 C 6.582031 4.875 6.75 4.707031 6.75 4.5 C 6.75 4.292969 6.582031 4.125 6.375 4.125 L 4.875 4.125 L 4.875 1.875 C 4.875 1.667969 4.707031 1.5 4.5 1.5 Z M 4.5 1.5 "/>
</g>
</svg>
