<?xml version="1.0" encoding="UTF-8"?>
<svg xmlns="http://www.w3.org/2000/svg" xmlns:xlink="http://www.w3.org/1999/xlink" width="9pt" height="9pt" viewBox="0 0 9 9" version="1.1">
<g id="surface1">
<path style=" stroke:none;fill-rule:evenodd;fill:rgb(55.294118%,55.294118%,55.294118%);fill-opacity:1;" d="M 7.683594 5.820312 C 7.199219 5.335938 6.617188 4.96875 5.972656 4.742188 C 6.910156 4.097656 7.324219 2.917969 6.984375 1.828125 C 6.648438 0.738281 5.640625 -0.00390625 4.5 -0.00390625 C 3.359375 -0.00390625 2.351562 0.738281 2.015625 1.828125 C 1.675781 2.917969 2.089844 4.097656 3.027344 4.742188 C 1.21875 5.375 0.00390625 7.082031 0 9 L 0.703125 9 C 0.6875 7.632812 1.410156 6.363281 2.589844 5.675781 C 3.769531 4.988281 5.230469 4.988281 6.410156 5.675781 C 7.589844 6.363281 8.3125 7.632812 8.296875 9 L 9 9 C 9.003906 7.804688 8.527344 6.660156 7.683594 5.820312 Z M 2.601562 2.601562 C 2.601562 1.550781 3.453125 0.703125 4.5 0.703125 C 5.546875 0.703125 6.398438 1.554688 6.398438 2.601562 C 6.398438 3.648438 5.546875 4.5 4.5 4.5 C 3.453125 4.5 2.601562 3.648438 2.601562 2.601562 Z M 2.601562 2.601562 "/>
</g>
</svg>
