<?xml version="1.0" encoding="UTF-8"?>
<svg xmlns="http://www.w3.org/2000/svg" xmlns:xlink="http://www.w3.org/1999/xlink" width="13px" height="13px" viewBox="0 0 13 13" version="1.1">
<g id="surface1">
<path style=" stroke:none;fill-rule:nonzero;fill:rgb(100%,100%,100%);fill-opacity:1;" d="M 4.554688 6.878906 C 2.992188 7.582031 1.855469 9.046875 1.660156 10.832031 C 1.660156 11.429688 2.109375 11.917969 2.707031 11.917969 L 10.292969 11.917969 C 10.890625 11.917969 11.339844 11.429688 11.339844 10.832031 C 11.144531 9.046875 10.007812 7.582031 8.445312 6.878906 C 8.09375 7.582031 7.359375 8.125 6.5 8.125 C 5.640625 8.125 4.90625 7.582031 4.554688 6.878906 Z M 4.554688 6.878906 "/>
<path style=" stroke:none;fill-rule:nonzero;fill:rgb(100%,100%,100%);fill-opacity:1;" d="M 9.207031 3.792969 C 9.207031 5.289062 7.996094 6.5 6.5 6.5 C 5.003906 6.5 3.792969 5.289062 3.792969 3.792969 C 3.792969 2.296875 5.003906 1.082031 6.5 1.082031 C 7.996094 1.082031 9.207031 2.296875 9.207031 3.792969 Z M 9.207031 3.792969 "/>
<path style=" stroke:none;fill-rule:nonzero;fill:rgb(100%,100%,100%);fill-opacity:1;" d="M 6.5 5.957031 C 5.808594 5.957031 5.148438 6.105469 4.554688 6.363281 C 2.992188 7.046875 1.855469 8.53125 1.660156 10.292969 C 1.660156 10.890625 2.109375 11.375 2.707031 11.375 L 10.292969 11.375 C 10.890625 11.375 11.339844 10.890625 11.339844 10.292969 C 11.144531 8.53125 10.007812 7.046875 8.445312 6.363281 C 7.851562 6.105469 7.191406 5.957031 6.5 5.957031 Z M 6.5 5.957031 "/>
</g>
</svg>
